#!OML:ASF E:\acrobat2\Project_11_07_03\Capture day 1\Session 1\Acrobat.ASF
:FULLY-SPECIFIED
:DEGREES
562
root 3.30126 18.3739 28.8328 283.305 -87.3744 89.1776
lowerback 5.22503 -0.738537 1.70821
upperback -0.841067 -0.864256 0.259333
thorax -3.8202 -0.46434 -0.617858
lowerneck -3.64057 -1.59674 0.260216
upperneck -2.18929 -2.16021 3.5771
head -0.0301631 -1.09565 1.02602
rclavicle 2.08724e-015 1.98785e-015
rhumerus -21.1881 -44.4254 2.68996
rradius 28.8919
rwrist -12.8987
rhand -20.7613 -46.7593
rfingers 7.12502
rthumb 5.60478 -436.665
lclavicle 2.08724e-015 1.98785e-015
lhumerus -22.2131 24.7578 23.6091
lradius 21.1998
lwrist 9.09174
lhand -25.9623 -12.1474
lfingers 7.12502
lthumb 0.582127 17.8315
rfemur -10.3055 13.0144 -2.48781
rtibia 3.09727
rfoot -25.23 -30.5073
rtoes 24.851
lfemur -2.83129 -10.498 -10.0925
ltibia -5.48039
lfoot -25.419 7.82
ltoes 49.4928
563
root 3.26736 18.3801 28.8688 291.212 -87.4247 81.0952
lowerback 4.99547 -0.591901 1.48656
upperback -0.817854 -0.691411 0.145708
thorax -3.66105 -0.373645 -0.627953
lowerneck -3.68449 -1.65079 0.29134
upperneck -2.09283 -2.23664 3.73521
head 0.00962219 -1.13208 1.06827
rclavicle 2.78299e-015 -1.31198e-014
rhumerus -21.409 -43.5449 2.58714
rradius 29.0289
rwrist -13.7722
rhand -20.7107 -46.8984
rfingers 7.12502
rthumb 5.65362 -436.803
lclavicle 2.78299e-015 -1.31198e-014
lhumerus -21.6473 25.0151 22.5155
lradius 21.4302
lwrist 8.95271
lhand -26.1967 -11.0762
lfingers 7.12502
lthumb 0.355745 18.9033
rfemur -9.95014 13.4069 -2.43567
rtibia 3.32156
rfoot -25.822 -30.7888
rtoes 24.6177
lfemur -2.59704 -10.8473 -10.3622
ltibia -5.50862
lfoot -26.2264 8.26156
ltoes 49.2937
564
root 3.22943 18.3889 28.9074 301.285 -87.4527 70.8252
lowerback 4.88076 -0.603694 1.32347
upperback -0.892822 -0.71791 0.161545
thorax -3.67215 -0.383573 -0.518688
lowerneck -3.53279 -1.59606 0.349085
upperneck -2.05166 -2.16231 3.50807
head -0.00777597 -1.09512 0.989765
rclavicle -6.65929e-015 -1.59028e-014
rhumerus -20.92 -45.2299 2.53005
rradius 28.5527
rwrist -11.8772
rhand -20.2392 -46.6141
rfingers 7.12502
rthumb 6.10889 -436.506
lclavicle -6.65929e-015 -1.59028e-014
lhumerus -21.6666 25.7891 21.0571
lradius 21.6997
lwrist 9.08205
lhand -25.9586 -11.2377
lfingers 7.12502
lthumb 0.585751 18.7413
rfemur -9.48652 13.29 -2.27126
rtibia 3.38142
rfoot -25.7456 -30.9344
rtoes 24.3377
lfemur -2.35932 -11.1571 -10.5358
ltibia -5.51643
lfoot -27.0145 7.87027
ltoes 50.3151
565
root 3.18973 18.3977 28.9446 314.78 -87.4595 57.1255
lowerback 4.85322 -0.694223 1.34461
upperback -1.05287 -0.832644 0.272178
thorax -3.82316 -0.441412 -0.406298
lowerneck -3.35178 -1.51936 0.182098
upperneck -1.90028 -2.05173 3.36794
head 0.00707694 -1.03637 0.976235
rclavicle -9.34288e-015 5.96354e-015
rhumerus -20.1107 -45.2204 2.05057
rradius 28.2106
rwrist -11.444
rhand -19.7419 -46.1655
rfingers 7.12502
rthumb 6.58897 -436.043
lclavicle -9.34288e-015 5.96354e-015
lhumerus -21.7964 26.0917 19.6523
lradius 21.9273
lwrist 9.78949
lhand -25.7976 -11.6233
lfingers 7.12502
lthumb 0.741274 18.3552
rfemur -8.91107 12.6579 -1.93442
rtibia 3.30556
rfoot -25.0547 -30.9613
rtoes 24.1419
lfemur -2.12725 -11.5215 -10.4985
ltibia -5.54748
lfoot -27.7357 7.64734
ltoes 50.8198
566
root 3.15246 18.4026 28.9754 325.895 -87.2541 45.78
lowerback 4.78419 -0.72271 1.22773
upperback -1.1457 -0.877021 0.308428
thorax -3.87866 -0.46105 -0.299866
lowerneck -3.21721 -1.50741 0.194672
upperneck -1.80259 -2.03454 3.20057
head 0.0122803 -1.02662 0.922967
rclavicle 4.77083e-015 -7.15625e-015
rhumerus -19.7588 -44.4504 1.65104
rradius 28.1519
rwrist -11.8254
rhand -19.3648 -45.7115
rfingers 7.12502
rthumb 6.95303 -435.577
lclavicle 4.77083e-015 -7.15625e-015
lhumerus -21.5798 26.2237 18.4651
lradius 22.1051
lwrist 10.1589
lhand -25.6367 -11.2507
lfingers 7.12502
lthumb 0.896583 18.7271
rfemur -8.29209 12.1588 -1.7179
rtibia 3.24859
rfoot -24.8724 -30.8851
rtoes 24.9629
lfemur -1.85743 -11.9658 -10.576
ltibia -5.57
lfoot -28.3645 7.93387
ltoes 50.3843
567
root 3.11222 18.4066 29.0028 331.558 -86.8119 39.8935
lowerback 4.58948 -0.704086 0.900042
upperback -1.18003 -0.877274 0.230998
thorax -3.80025 -0.454282 -0.198238
lowerneck -2.98437 -1.54515 0.201199
upperneck -1.85987 -2.07941 3.15398
head -0.043282 -1.05116 0.909139
rclavicle -5.96354e-015 -5.56597e-015
rhumerus -19.8649 -43.8825 1.50311
rradius 28.2288
rwrist -12.0331
rhand -19.2315 -45.5471
rfingers 7.12502
rthumb 7.08167 -435.409
lclavicle -5.96354e-015 -5.56597e-015
lhumerus -21.1595 26.6914 17.3907
lradius 22.2527
lwrist 9.78859
lhand -25.3494 -10.5937
lfingers 7.12502
lthumb 1.17408 19.3828
rfemur -7.57827 11.9427 -1.76523
rtibia 3.11288
rfoot -25.2612 -30.6223
rtoes 26.7692
lfemur -1.63107 -11.6929 -10.9376
ltibia -5.50797
lfoot -28.1891 7.9744
ltoes 50.2231
568
root 3.07099 18.4136 29.0289 336.695 -86.5061 34.4839
lowerback 4.48642 -0.640956 0.674229
upperback -1.2386 -0.807312 0.232439
thorax -3.7986 -0.41446 -0.0764171
lowerneck -2.71072 -1.5994 -0.115391
upperneck -1.86372 -2.13694 3.35018
head -0.0823633 -1.07932 1.02512
rclavicle -9.19379e-015 -1.11319e-014
rhumerus -20.0016 -44.2956 1.58593
rradius 28.1127
rwrist -11.2218
rhand -19.1151 -45.4172
rfingers 7.12502
rthumb 7.19402 -435.275
lclavicle -9.19379e-015 -1.11319e-014
lhumerus -20.7322 26.8052 16.5323
lradius 22.3792
lwrist 9.85316
lhand -24.846 -10.0339
lfingers 7.12502
lthumb 1.66033 19.9394
rfemur -6.81709 12.005 -1.64314
rtibia 2.84691
rfoot -25.6481 -30.4118
rtoes 28.5664
lfemur -1.30228 -11.3158 -11.1399
ltibia -5.48816
lfoot -28.0674 8.09299
ltoes 50.1923
